# xmcd
#
# Track frame offsets:
#	150
#	27451
#	47903
#	86232
#	117783
#	137885
#	153669
#	175930
#	194519
#	237519
#	259233
#	306931
#
# Disc length: 4455 seconds
#
# Revision: 1
# Processed by: cddbd v1.5.1PL0 Copyright (c) Steve Scherf et al.
# Submitted via: EasyCDDAExtractor 6.2.0.3
#
DISCID=b211650c
DTITLE=Yes - Best Of
DYEAR=1900
DGENRE=
TTITLE0=It Can Happen
TTITLE1=Big Generator
TTITLE2=Roundabout
TTITLE3=Shoot High Aim Low
TTITLE4=Owner Of A Lonley Heart
TTITLE5=Long Distance Runaround
TTITLE6=Love Conquers All
TTITLE7=Soon
TTITLE8=Homeworld
TTITLE9=Rhythm Of Love
TTITLE10=Geart Of The Sunrise
TTITLE11=Finally
EXTD=
EXTT0=
EXTT1=
EXTT2=
EXTT3=
EXTT4=
EXTT5=
EXTT6=
EXTT7=
EXTT8=
EXTT9=
EXTT10=
EXTT11=
PLAYORDER=
